<svg width="955" height="955" viewBox="0 0 955 955" fill="none" xmlns="http://www.w3.org/2000/svg">
<g clip-path="url(#clip0_734_734)">
<path d="M300.234 729.69C297.366 727.753 294.401 725.938 291.652 723.849C287.402 720.622 283.299 717.208 279.757 712.875C291.222 701.035 302.064 690.194 313.452 678.806C310.089 676.725 307.976 675.393 305.839 674.098C296.133 668.217 294.905 656.729 303.074 647.955C304.47 646.456 305.96 645.043 307.41 643.594C423.056 527.947 538.702 412.3 654.725 297.025C664.258 306.568 676.712 305.181 688.611 305.567C693.611 312.584 698.61 319.601 703.487 327.523C571.821 459.972 440.283 591.522 308.695 723.022C306.173 725.543 303.067 727.481 300.234 729.69Z" fill="#FFCD6E"/>
<path d="M300.046 730.105C303.068 727.48 306.173 725.543 308.695 723.022C440.283 591.521 571.821 459.972 703.807 327.984C709.032 331.266 714.212 330.133 719.765 328.144C726.257 325.818 732.929 324.107 738.917 322.311C739.485 328.803 739.985 334.511 740.403 340.963C604.812 477.228 469.303 612.75 333.795 748.272C332.346 749.72 330.591 750.994 329.543 752.675C328.445 754.435 328.028 756.588 327.313 758.569C326.457 758.713 325.558 759.07 324.752 758.967C319.191 758.253 311.996 759.31 308.468 756.249C302.383 750.966 298.987 742.933 299.74 733.79C299.83 732.701 299.821 731.611 300.046 730.105Z" fill="#FFC967"/>
<path d="M280.974 598.29C277.67 596.843 273.824 596.036 271.159 593.836C260.751 585.243 262.887 581.444 272.564 567.102C273.69 565.433 274.672 563.674 275.696 561.176C278.4 557.079 280.873 553.506 283.895 550.482C391.842 442.446 499.835 334.455 607.869 226.505C610.733 223.644 614.131 221.316 617.28 218.739C622.239 217.395 627.218 216.139 632.153 214.686C642.681 211.588 647.466 215.136 647.183 225.968C647.115 228.572 647.007 231.179 646.223 234.235C642.089 237.185 638.239 239.275 635.267 242.243C524.99 352.38 414.774 462.578 304.628 572.845C296.449 581.033 288.845 589.795 280.974 598.29Z" fill="#FAE3B4"/>
<path d="M327.729 758.722C328.029 756.588 328.446 754.435 329.544 752.675C330.592 750.995 332.347 749.721 333.796 748.272C469.304 612.75 604.813 477.228 740.773 341.237C748.315 335.501 756.264 334.421 764.228 335.312C770.236 335.984 771.434 339.571 767.908 344.608C765.627 347.867 763.187 351.111 760.379 353.921C622.152 492.233 483.882 630.501 345.576 768.733C342.782 771.525 339.501 773.829 336.435 776.371C330.499 773.484 331.397 767.784 330.262 763.059C329.902 761.558 328.869 760.263 327.729 758.722Z" fill="#FFC660"/>
<path d="M281.225 598.678C288.845 589.795 296.449 581.032 304.628 572.845C414.774 462.578 524.99 352.38 635.267 242.243C638.239 239.275 642.089 237.185 646.04 234.656C647.001 238.07 647.45 241.514 647.785 244.078C658.952 242.992 669.003 242.013 680.741 240.871C675.787 248.306 672.213 253.67 667.789 259.38C660.807 265.589 654.675 271.453 648.206 276.984C644.711 276.072 641.555 275.492 637.934 275.244C634.512 278.02 631.331 280.243 628.628 282.945C510.767 400.731 392.954 518.565 275.083 636.341C272.761 638.662 269.821 640.364 267.169 642.354C261.776 637.038 266.384 631.839 268.656 626.75C272.797 617.471 277.189 608.289 281.225 598.678Z" fill="#FAE3B4"/>
<path d="M638.399 274.914C641.556 275.493 644.713 276.072 648.09 277.418C648.826 284.928 647.42 292.423 654.35 296.654C538.704 412.3 423.057 527.947 307.411 643.594C305.961 645.043 304.471 646.456 303.075 647.955C294.906 656.729 296.135 668.216 305.84 674.098C307.977 675.393 310.09 676.724 313.453 678.806C302.065 690.194 291.224 701.035 279.912 712.328C278.492 710.553 277.283 708.414 276.64 706.082C274.971 700.029 273.619 693.867 271.935 687.82C271.752 687.165 270.223 686.974 269.336 685.919C276.434 678.173 283.66 671.211 290.552 663.936C296.471 657.688 295.339 653.285 287.752 651.368C285.465 650.791 283.201 650.143 280.925 649.531C274.917 647.915 274.179 645.19 278.508 640.244C280.004 638.534 281.697 636.991 283.308 635.38C400.118 518.569 516.93 401.758 633.74 284.946C635.19 283.496 637.117 282.238 637.933 280.521C638.701 278.907 638.291 276.802 638.399 274.914Z" fill="#FFD173"/>
<path d="M616.893 218.453C614.131 221.316 610.733 223.644 607.869 226.506C499.835 334.455 391.842 442.446 283.895 550.482C280.873 553.506 278.4 557.079 275.284 560.837C267.534 563.891 260.193 566.587 252.788 569.043C251.351 569.519 249.666 569.057 248.095 569.028C248.26 567.437 247.999 565.663 248.668 564.287C250.996 559.497 251.118 559.55 247.06 556.294C251.831 550.468 256.164 544.189 261.455 538.861C372.756 426.787 484.158 314.815 595.59 202.872C598.227 200.223 601.544 198.267 604.343 195.759C608.783 191.78 610.945 193.585 612.017 198.108C613.595 204.769 615.017 211.478 616.893 218.453Z" fill="#FAE5B8"/>
<path d="M637.934 275.244C638.29 276.802 638.699 278.907 637.932 280.521C637.116 282.238 635.189 283.496 633.739 284.946C516.928 401.758 400.117 518.569 283.307 635.38C281.696 636.991 280.003 638.534 278.507 640.244C274.178 645.19 274.916 647.915 280.924 649.531C283.2 650.143 285.464 650.791 287.75 651.368C295.338 653.285 296.47 657.688 290.551 663.936C283.658 671.211 276.433 678.173 268.906 685.736C267.011 686.059 265.382 685.373 264.143 685.864C255.232 689.393 255.53 681.737 253.551 677.307C251.736 673.243 250.465 668.846 249.517 664.436C249.163 662.789 249.831 660.176 251.011 658.886C255.923 653.518 261.208 648.488 266.762 642.844C269.821 640.364 272.761 638.662 275.084 636.341C392.954 518.565 510.767 400.731 628.628 282.945C631.331 280.244 634.512 278.02 637.934 275.244Z" fill="#FFD47A"/>
<path d="M654.725 297.025C647.418 292.423 648.825 284.928 648.426 277.752C654.675 271.453 660.807 265.589 667.449 259.814C668.12 261.632 668.279 263.361 668.445 265.154C675.061 261.307 681.619 256.865 688.647 253.571C697.153 249.584 699.556 251.793 698.05 260.919C697.523 264.112 697.17 267.322 696.764 270.525C695.937 277.047 697.413 278.605 704.235 278.517C706.137 278.492 708.035 278.552 710.938 278.585C705.377 289.295 697.225 296.818 689.035 305.103C676.712 305.181 664.258 306.568 654.725 297.025Z" fill="#FAE3B4"/>
</g>
<defs>
<clipPath id="clip0_734_734">
<rect x="494.975" width="650" height="700" rx="50" transform="rotate(45 494.975 0)" fill="white"/>
</clipPath>
</defs>
</svg>
