<svg width="955" height="955" viewBox="0 0 955 955" fill="none" xmlns="http://www.w3.org/2000/svg">
<g clip-path="url(#clip0_735_783)">
<path d="M224.904 300.235C226.842 297.366 228.657 294.402 230.745 291.652C233.973 287.402 237.387 283.3 241.72 279.758C253.559 291.223 264.401 302.064 275.789 313.452C277.87 310.089 279.202 307.976 280.497 305.839C286.378 296.134 297.865 294.905 306.639 303.075C308.139 304.47 309.551 305.961 311.001 307.41C426.648 423.056 542.294 538.703 657.57 654.726C648.026 664.259 649.413 676.712 649.027 688.612C642.01 693.611 634.993 698.611 627.072 703.488C494.623 571.822 363.073 440.284 231.573 308.696C229.052 306.173 227.114 303.068 224.904 300.235Z" fill="#FFCD6E"/>
<path d="M224.488 300.047C227.113 303.068 229.051 306.173 231.572 308.696C363.072 440.284 494.622 571.822 626.609 703.808C623.327 709.032 624.46 714.212 626.449 719.766C628.775 726.258 630.486 732.929 632.282 738.917C625.79 739.486 620.082 739.986 613.631 740.404C477.365 604.813 341.844 469.304 206.321 333.795C204.873 332.347 203.599 330.592 201.919 329.543C200.158 328.445 198.005 328.028 196.024 327.313C195.88 326.457 195.523 325.559 195.627 324.752C196.341 319.191 195.283 311.996 198.345 308.469C203.627 302.383 211.66 298.987 220.803 299.74C221.892 299.83 222.983 299.822 224.488 300.047Z" fill="#FFC967"/>
<path d="M356.304 280.974C357.751 277.671 358.557 273.824 360.757 271.159C369.351 260.752 373.15 262.888 387.492 272.565C389.16 273.691 390.919 274.673 393.417 275.696C397.515 278.4 401.088 280.873 404.112 283.895C512.148 391.843 620.139 499.835 728.088 607.87C730.95 610.734 733.278 614.132 735.854 617.281C737.199 622.24 738.455 627.218 739.907 632.153C743.006 642.681 739.458 647.466 728.626 647.183C726.021 647.115 723.415 647.008 720.359 646.224C717.409 642.089 715.319 638.239 712.35 635.267C602.214 524.99 492.016 414.775 381.749 304.628C373.561 296.449 364.799 288.845 356.304 280.974Z" fill="#FAE3B4"/>
<path d="M195.872 327.728C198.005 328.028 200.158 328.445 201.919 329.543C203.599 330.592 204.873 332.347 206.322 333.795C341.844 469.304 477.365 604.813 613.356 740.773C619.092 748.315 620.173 756.263 619.282 764.227C618.61 770.236 615.022 771.433 609.986 767.908C606.727 765.626 603.483 763.187 600.673 760.378C462.361 622.151 324.092 483.882 185.861 345.575C183.069 342.782 180.765 339.501 178.223 336.434C181.11 330.499 186.81 331.396 191.534 330.262C193.036 329.901 194.33 328.868 195.872 327.728Z" fill="#FFC660"/>
<path d="M355.915 281.225C364.799 288.845 373.561 296.449 381.749 304.628C492.016 414.775 602.214 524.99 712.35 635.267C715.319 638.239 717.409 642.089 719.938 646.041C716.523 647.001 713.079 647.451 710.515 647.785C711.602 658.953 712.58 669.003 713.722 680.741C706.287 675.788 700.923 672.214 695.213 667.789C689.004 660.807 683.14 654.676 677.61 648.206C678.522 644.712 679.101 641.555 679.35 637.934C676.573 634.512 674.35 631.331 671.648 628.628C553.862 510.767 436.028 392.954 318.252 275.084C315.932 272.761 314.229 269.821 312.239 267.169C317.555 261.777 322.755 266.385 327.843 268.656C337.122 272.798 346.304 277.189 355.915 281.225Z" fill="#FAE3B4"/>
<path d="M679.681 638.398C679.102 641.555 678.522 644.712 677.176 648.089C669.666 648.825 662.171 647.419 657.94 654.349C542.294 538.703 426.647 423.056 311 307.41C309.551 305.96 308.138 304.47 306.639 303.074C297.865 294.905 286.378 296.134 280.496 305.839C279.201 307.976 277.87 310.089 275.788 313.452C264.401 302.064 253.559 291.223 242.266 279.911C244.042 278.491 246.18 277.282 248.512 276.639C254.565 274.97 260.727 273.618 266.774 271.934C267.43 271.751 267.62 270.222 268.675 269.335C276.422 276.433 283.383 283.659 290.658 290.551C296.906 296.47 301.309 295.338 303.226 287.751C303.804 285.464 304.451 283.2 305.063 280.924C306.679 274.916 309.404 274.178 314.35 278.507C316.06 280.003 317.603 281.696 319.214 283.307C436.026 400.117 552.837 516.929 669.648 633.739C671.098 635.189 672.356 637.116 674.073 637.932C675.687 638.7 677.792 638.29 679.681 638.398Z" fill="#FFD173"/>
<path d="M736.141 616.893C733.278 614.132 730.95 610.734 728.089 607.869C620.139 499.835 512.148 391.843 404.112 283.895C401.088 280.873 397.515 278.4 393.757 275.285C390.703 267.535 388.007 260.193 385.551 252.788C385.075 251.351 385.537 249.666 385.567 248.096C387.158 248.261 388.931 248 390.307 248.668C395.097 250.996 395.044 251.119 398.3 247.061C404.127 251.832 410.406 256.164 415.734 261.456C527.807 372.756 639.779 484.158 751.722 595.59C754.371 598.227 756.327 601.545 758.835 604.344C762.814 608.784 761.009 610.946 756.486 612.017C749.825 613.595 743.116 615.017 736.141 616.893Z" fill="#FAE5B8"/>
<path d="M679.351 637.935C677.792 638.29 675.688 638.7 674.073 637.932C672.356 637.116 671.099 635.189 669.649 633.739C552.837 516.929 436.026 400.118 319.214 283.307C317.603 281.696 316.061 280.004 314.351 278.507C309.404 274.178 306.68 274.917 305.064 280.924C304.451 283.2 303.804 285.464 303.226 287.751C301.309 295.338 296.907 296.47 290.659 290.551C283.384 283.659 276.422 276.434 268.859 268.907C268.535 267.012 269.221 265.383 268.731 264.144C265.202 255.232 272.858 255.53 277.288 253.552C281.351 251.737 285.748 250.465 290.159 249.517C291.806 249.163 294.419 249.831 295.709 251.012C301.076 255.923 306.107 261.208 311.751 266.763C314.231 269.821 315.933 272.762 318.253 275.084C436.03 392.955 553.864 510.768 671.65 628.628C674.351 631.332 676.574 634.513 679.351 637.935Z" fill="#FFD47A"/>
<path d="M657.569 654.726C662.171 647.419 669.666 648.825 676.843 648.427C683.141 654.676 689.005 660.807 694.78 667.45C692.962 668.12 691.234 668.28 689.44 668.445C693.287 675.062 697.729 681.62 701.023 688.647C705.01 697.154 702.802 699.557 693.675 698.05C690.482 697.523 687.272 697.17 684.069 696.764C677.547 695.937 675.989 697.413 676.077 704.235C676.102 706.138 676.042 708.035 676.009 710.938C665.3 705.377 657.776 697.225 649.491 689.036C649.413 676.712 648.026 664.259 657.569 654.726Z" fill="#FAE3B4"/>
</g>
<defs>
<clipPath id="clip0_735_783">
<rect x="954.594" y="494.975" width="650" height="700" rx="50" transform="rotate(135 954.594 494.975)" fill="white"/>
</clipPath>
</defs>
</svg>
