<svg width="955" height="955" viewBox="0 0 955 955" fill="none" xmlns="http://www.w3.org/2000/svg">
<g clip-path="url(#clip0_735_793)">
<path d="M729.689 654.36C727.752 657.228 725.937 660.192 723.848 662.942C720.621 667.192 717.207 671.295 712.874 674.837C701.034 663.372 690.193 652.53 678.805 641.142C676.724 644.505 675.392 646.618 674.097 648.755C668.216 658.461 656.728 659.689 647.954 651.52C646.455 650.124 645.043 648.634 643.593 647.184C527.946 531.538 412.299 415.891 297.024 299.869C306.567 290.336 305.18 277.882 305.566 265.982C312.583 260.983 319.6 255.984 327.522 251.107C459.971 382.772 591.521 514.311 723.021 645.898C725.542 648.421 727.48 651.526 729.689 654.36Z" fill="#FFCD6E"/>
<path d="M730.106 654.547C727.481 651.526 725.543 648.421 723.022 645.898C591.522 514.311 459.972 382.772 327.984 250.787C331.267 245.562 330.134 240.382 328.144 234.828C325.819 228.337 324.108 221.665 322.311 215.677C328.803 215.108 334.511 214.608 340.963 214.191C477.228 349.782 612.75 485.29 748.272 620.799C749.721 622.247 750.995 624.003 752.675 625.051C754.436 626.149 756.589 626.566 758.57 627.281C758.714 628.137 759.071 629.036 758.967 629.842C758.253 635.403 759.311 642.598 756.249 646.125C750.967 652.211 742.933 655.607 733.791 654.854C732.701 654.764 731.611 654.772 730.106 654.547Z" fill="#FFC967"/>
<path d="M598.29 673.62C596.843 676.924 596.036 680.77 593.836 683.435C585.243 693.843 581.444 691.707 567.102 682.029C565.433 680.904 563.674 679.921 561.176 678.898C557.079 676.194 553.506 673.721 550.482 670.699C442.446 562.751 334.455 454.759 226.505 346.725C223.644 343.861 221.316 340.463 218.739 337.314C217.395 332.355 216.139 327.376 214.686 322.441C211.588 311.913 215.136 307.128 225.968 307.411C228.572 307.479 231.179 307.587 234.235 308.37C237.185 312.505 239.275 316.355 242.243 319.327C352.38 429.604 462.578 539.82 572.845 649.966C581.033 658.145 589.795 665.749 598.29 673.62Z" fill="#FAE3B4"/>
<path d="M758.722 626.866C756.588 626.566 754.435 626.149 752.675 625.051C750.995 624.003 749.721 622.247 748.272 620.799C612.75 485.29 477.228 349.782 341.237 213.822C335.501 206.279 334.421 198.331 335.312 190.367C335.984 184.358 339.571 183.161 344.608 186.687C347.867 188.968 351.111 191.407 353.921 194.216C492.233 332.443 630.501 470.713 768.733 609.019C771.525 611.812 773.829 615.094 776.371 618.16C773.484 624.096 767.784 623.198 763.059 624.332C761.558 624.693 760.263 625.726 758.722 626.866Z" fill="#FFC660"/>
<path d="M598.678 673.369C589.795 665.749 581.033 658.145 572.845 649.966C462.578 539.82 352.38 429.604 242.244 319.327C239.275 316.355 237.185 312.505 234.656 308.554C238.071 307.593 241.515 307.144 244.079 306.809C242.992 295.641 242.014 285.591 240.871 273.853C248.306 278.806 253.671 282.38 259.381 286.805C265.59 293.787 271.453 299.919 276.984 306.388C276.072 309.883 275.493 313.039 275.244 316.66C278.021 320.082 280.244 323.263 282.945 325.966C400.731 443.827 518.565 561.64 636.342 679.51C638.662 681.833 640.364 684.773 642.355 687.425C637.038 692.817 631.839 688.21 626.75 685.938C617.472 681.796 608.289 677.405 598.678 673.369Z" fill="#FAE3B4"/>
<path d="M274.913 316.196C275.492 313.039 276.071 309.883 277.418 306.505C284.928 305.769 292.423 307.176 296.653 300.245C412.3 415.891 527.946 531.538 643.593 647.184C645.043 648.634 646.455 650.124 647.955 651.52C656.729 659.689 668.216 658.461 674.097 648.755C675.392 646.618 676.724 644.505 678.805 641.142C690.193 652.53 701.035 663.372 712.327 674.683C710.552 676.104 708.414 677.312 706.082 677.955C700.029 679.624 693.867 680.976 687.819 682.661C687.164 682.843 686.974 684.372 685.919 685.259C678.172 678.161 671.21 670.936 663.936 664.043C657.688 658.124 653.285 659.256 651.368 666.844C650.79 669.13 650.143 671.394 649.531 673.67C647.915 679.678 645.19 680.416 640.244 676.087C638.534 674.591 636.991 672.898 635.38 671.287C518.568 554.477 401.757 437.666 284.945 320.855C283.495 319.405 282.238 317.478 280.521 316.662C278.906 315.895 276.802 316.304 274.913 316.196Z" fill="#FFD173"/>
<path d="M218.453 337.701C221.316 340.463 223.643 343.861 226.505 346.725C334.454 454.759 442.446 562.751 550.481 670.699C553.506 673.721 557.078 676.194 560.837 679.309C563.89 687.059 566.587 694.401 569.042 701.806C569.519 703.243 569.057 704.928 569.027 706.499C567.436 706.333 565.663 706.595 564.287 705.926C559.497 703.598 559.549 703.476 556.294 707.534C550.467 702.762 544.188 698.43 538.86 693.138C426.787 581.838 314.814 470.436 202.871 359.004C200.222 356.367 198.267 353.049 195.759 350.251C191.78 345.81 193.585 343.649 198.108 342.577C204.769 340.999 211.478 339.577 218.453 337.701Z" fill="#FAE5B8"/>
<path d="M275.243 316.66C276.801 316.304 278.906 315.894 280.52 316.662C282.237 317.478 283.495 319.405 284.945 320.855C401.757 437.665 518.568 554.477 635.379 671.287C636.99 672.898 638.533 674.591 640.243 676.087C645.189 680.416 647.914 679.678 649.53 673.67C650.142 671.394 650.79 669.13 651.367 666.843C653.284 659.256 657.687 658.124 663.935 664.043C671.21 670.935 678.172 678.161 685.735 685.688C686.058 687.582 685.372 689.211 685.863 690.45C689.392 699.362 681.736 699.064 677.306 701.042C673.242 702.857 668.845 704.129 664.435 705.077C662.788 705.431 660.175 704.763 658.885 703.583C653.517 698.671 648.487 693.386 642.843 687.831C640.363 684.773 638.661 681.833 636.34 679.51C518.564 561.64 400.73 443.827 282.944 325.966C280.243 323.263 278.019 320.082 275.243 316.66Z" fill="#FFD47A"/>
<path d="M297.024 299.869C292.423 307.175 284.928 305.769 277.751 306.167C271.453 299.918 265.589 293.787 259.814 287.144C261.631 286.474 263.36 286.315 265.153 286.149C261.307 279.533 256.864 272.975 253.57 265.947C249.583 257.44 251.792 255.037 260.919 256.544C264.112 257.071 267.321 257.424 270.525 257.83C277.047 258.657 278.605 257.181 278.516 250.359C278.492 248.456 278.552 246.559 278.584 243.656C289.294 249.217 296.818 257.369 305.102 265.559C305.181 277.882 306.568 290.336 297.024 299.869Z" fill="#FAE3B4"/>
</g>
<defs>
<clipPath id="clip0_735_793">
<rect y="459.62" width="650" height="700" rx="50" transform="rotate(-45 0 459.62)" fill="white"/>
</clipPath>
</defs>
</svg>
