<svg width="955" height="955" viewBox="0 0 955 955" fill="none" xmlns="http://www.w3.org/2000/svg">
<g clip-path="url(#clip0_735_803)">
<path d="M654.36 224.904C657.228 226.841 660.192 228.657 662.942 230.745C667.192 233.973 671.295 237.387 674.837 241.72C663.372 253.559 652.53 264.401 641.142 275.788C644.505 277.87 646.618 279.201 648.755 280.496C658.461 286.378 659.689 297.865 651.52 306.639C650.124 308.138 648.634 309.551 647.184 311C531.538 426.647 415.891 542.294 299.869 657.569C290.336 648.026 277.882 649.413 265.982 649.027C260.983 642.01 255.984 634.993 251.107 627.071C382.772 494.622 514.311 363.072 645.898 231.572C648.421 229.051 651.526 227.114 654.36 224.904Z" fill="#FFCD6E"/>
<path d="M654.547 224.489C651.526 227.114 648.421 229.052 645.898 231.573C514.311 363.073 382.772 494.622 250.787 626.61C245.562 623.328 240.382 624.461 234.828 626.45C228.337 628.776 221.665 630.487 215.677 632.283C215.108 625.791 214.608 620.083 214.191 613.632C349.782 477.366 485.29 341.845 620.799 206.322C622.247 204.874 624.003 203.6 625.051 201.92C626.149 200.159 626.566 198.006 627.281 196.025C628.137 195.881 629.036 195.524 629.842 195.628C635.403 196.342 642.598 195.284 646.125 198.346C652.211 203.628 655.607 211.661 654.854 220.804C654.764 221.893 654.772 222.984 654.547 224.489Z" fill="#FFC967"/>
<path d="M673.62 356.304C676.924 357.751 680.77 358.558 683.435 360.758C693.843 369.351 691.707 373.151 682.029 387.492C680.904 389.161 679.921 390.92 678.898 393.418C676.194 397.516 673.721 401.088 670.699 404.112C562.751 512.148 454.759 620.14 346.725 728.089C343.861 730.951 340.463 733.278 337.314 735.855C332.355 737.2 327.376 738.456 322.441 739.908C311.913 743.006 307.128 739.458 307.411 728.626C307.479 726.022 307.587 723.416 308.37 720.36C312.505 717.409 316.355 715.32 319.327 712.351C429.604 602.214 539.82 492.017 649.966 381.75C658.145 373.562 665.749 364.8 673.62 356.304Z" fill="#FAE3B4"/>
<path d="M626.865 195.872C626.565 198.006 626.148 200.159 625.05 201.919C624.002 203.6 622.246 204.874 620.798 206.322C485.289 341.844 349.781 477.366 213.821 613.357C206.278 619.093 198.33 620.173 190.366 619.282C184.357 618.611 183.16 615.023 186.686 609.986C188.967 606.727 191.406 603.484 194.215 600.673C332.442 462.361 470.712 324.093 609.018 185.861C611.811 183.069 615.093 180.765 618.159 178.223C624.095 181.111 623.197 186.81 624.331 191.535C624.692 193.037 625.725 194.331 626.865 195.872Z" fill="#FFC660"/>
<path d="M673.369 355.916C665.749 364.8 658.145 373.562 649.966 381.75C539.82 492.017 429.604 602.215 319.327 712.351C316.355 715.32 312.505 717.41 308.554 719.939C307.593 716.524 307.144 713.08 306.809 710.516C295.641 711.603 285.591 712.581 273.853 713.723C278.806 706.288 282.38 700.924 286.805 695.214C293.787 689.005 299.919 683.141 306.388 677.611C309.883 678.523 313.039 679.102 316.66 679.351C320.082 676.574 323.263 674.351 325.966 671.649C443.827 553.863 561.64 436.029 679.51 318.253C681.833 315.933 684.773 314.23 687.425 312.24C692.817 317.556 688.21 322.756 685.938 327.844C681.796 337.123 677.405 346.305 673.369 355.916Z" fill="#FAE3B4"/>
<path d="M316.194 679.681C313.038 679.102 309.881 678.522 306.504 677.176C305.768 669.666 307.174 662.171 300.243 657.94C415.89 542.294 531.536 426.647 647.183 311C648.632 309.551 650.123 308.138 651.518 306.639C659.688 297.865 658.459 286.378 648.753 280.496C646.616 279.201 644.503 277.87 641.141 275.788C652.529 264.401 663.37 253.559 674.682 242.266C676.102 244.042 677.311 246.18 677.954 248.512C679.623 254.565 680.975 260.727 682.659 266.774C682.842 267.43 684.37 267.62 685.257 268.675C678.16 276.422 670.934 283.383 664.042 290.658C658.123 296.906 659.255 301.309 666.842 303.226C669.129 303.804 671.393 304.451 673.669 305.063C679.676 306.679 680.415 309.404 676.086 314.35C674.589 316.06 672.897 317.603 671.286 319.214C554.475 436.026 437.664 552.837 320.854 669.648C319.404 671.098 317.477 672.356 316.661 674.073C315.893 675.687 316.303 677.792 316.194 679.681Z" fill="#FFD173"/>
<path d="M337.701 736.141C340.463 733.278 343.861 730.95 346.725 728.089C454.759 620.139 562.751 512.148 670.699 404.112C673.721 401.088 676.194 397.515 679.309 393.757C687.059 390.703 694.401 388.007 701.806 385.551C703.243 385.075 704.928 385.537 706.499 385.567C706.333 387.158 706.595 388.931 705.926 390.307C703.598 395.097 703.476 395.044 707.534 398.3C702.762 404.127 698.43 410.406 693.138 415.734C581.838 527.807 470.436 639.779 359.004 751.722C356.367 754.371 353.049 756.327 350.251 758.835C345.81 762.814 343.649 761.009 342.577 756.486C340.999 749.825 339.577 743.116 337.701 736.141Z" fill="#FAE5B8"/>
<path d="M316.66 679.351C316.304 677.792 315.894 675.687 316.662 674.073C317.478 672.356 319.405 671.098 320.855 669.648C437.665 552.837 554.477 436.026 671.287 319.214C672.898 317.603 674.591 316.06 676.087 314.35C680.416 309.404 679.678 306.679 673.67 305.063C671.394 304.451 669.13 303.804 666.843 303.226C659.256 301.309 658.124 296.906 664.043 290.658C670.935 283.383 678.161 276.422 685.688 268.859C687.582 268.535 689.211 269.221 690.45 268.73C699.362 265.202 699.064 272.858 701.042 277.287C702.857 281.351 704.129 285.748 705.077 290.158C705.431 291.805 704.763 294.419 703.583 295.709C698.671 301.076 693.386 306.107 687.831 311.75C684.773 314.23 681.833 315.932 679.51 318.253C561.64 436.029 443.827 553.863 325.966 671.649C323.263 674.351 320.082 676.574 316.66 679.351Z" fill="#FFD47A"/>
<path d="M299.869 657.569C307.175 662.171 305.769 669.666 306.167 676.843C299.918 683.141 293.787 689.005 287.144 694.78C286.474 692.962 286.315 691.234 286.149 689.44C279.533 693.287 272.975 697.729 265.947 701.023C257.44 705.01 255.037 702.802 256.544 693.675C257.071 690.482 257.424 687.272 257.83 684.069C258.657 677.547 257.181 675.989 250.359 676.077C248.456 676.102 246.559 676.042 243.656 676.009C249.217 665.3 257.369 657.776 265.559 649.491C277.882 649.413 290.336 648.026 299.869 657.569Z" fill="#FAE3B4"/>
</g>
<defs>
<clipPath id="clip0_735_803">
<rect x="459.619" y="954.594" width="650" height="700" rx="50" transform="rotate(-135 459.619 954.594)" fill="white"/>
</clipPath>
</defs>
</svg>
