<svg width="320" height="320" viewBox="0 0 320 320" fill="none" xmlns="http://www.w3.org/2000/svg">
<path d="M256.479 63.1284C261.61 49.2159 266.61 43.6784 269.185 41.5972C271.098 40.0472 272.766 39.4597 274.135 39.8409C276.635 40.5472 279.441 44.4972 281.56 50.3972C288.366 69.3597 287.81 103.072 280.979 131.341L256.479 63.1284ZM77.7289 108.703C82.4289 89.3284 84.1539 67.3722 82.5852 49.3784L55.3352 46.3409L77.7289 108.703ZM258.641 38.0784L70.3914 17.1222C68.8289 16.9472 67.1164 18.0347 65.9477 18.9972C63.6539 20.8722 59.4352 25.4472 54.9102 36.2722L247.835 57.7347C251.06 49.4534 254.723 42.8034 258.654 38.0909L258.641 38.0784ZM115.654 224.772V180.572L122.379 181.316L148.779 184.553V228.622L115.654 224.772ZM125.654 199.56C125.675 200.817 125.987 202.052 126.566 203.168C127.145 204.284 127.975 205.25 128.991 205.991L127.529 221.253L138.154 222.341L135.654 206.716C136.674 206.169 137.512 205.337 138.067 204.321C138.622 203.306 138.869 202.151 138.779 200.997C138.666 199.103 137.926 197.301 136.674 195.876C135.422 194.451 133.73 193.484 131.866 193.128C131.866 193.128 131.973 193.191 131.948 193.191C128.229 192.766 125.029 195.628 125.654 199.503V199.56ZM158.779 239.841L105.654 233.691V179.491L104.998 179.435C104.806 180.536 104.257 181.543 103.436 182.301C102.615 183.059 101.567 183.526 100.454 183.628C101.568 184.02 102.507 184.794 103.105 185.812C103.704 186.83 103.922 188.027 103.723 189.191C103.523 190.367 102.909 191.433 101.992 192.197C101.075 192.96 99.9156 193.37 98.7227 193.353C104.006 195.856 101.436 203.84 95.6852 202.791C96.7214 203.505 97.4501 204.584 97.7259 205.812C98.0017 207.04 97.8044 208.327 97.1732 209.415C96.542 210.504 95.5234 211.315 94.3208 211.686C93.1181 212.057 91.8199 211.96 90.6852 211.416C91.538 212.434 91.9516 213.749 91.835 215.071C91.7183 216.394 91.081 217.616 90.0633 218.469C89.0455 219.322 87.7306 219.735 86.4079 219.619C85.0852 219.502 83.863 218.865 83.0102 217.847V217.903C83.1966 218.918 83.0649 219.965 82.633 220.901C82.2011 221.838 81.4902 222.618 80.5977 223.135L86.3039 226.478V235.385L78.8039 239.841L71.3039 235.391V226.478L76.3977 223.466C75.6043 223.16 74.8993 222.662 74.3462 222.016C73.7931 221.37 73.4092 220.597 73.2289 219.766C73.2263 219.745 73.2263 219.724 73.2289 219.703C72.7698 220.904 71.8659 221.882 70.705 222.433C69.5442 222.985 68.2154 223.068 66.9946 222.666C65.7738 222.264 64.7547 221.407 64.1489 220.274C63.5432 219.14 63.3972 217.817 63.7414 216.578C59.4595 221.087 52.4327 215.288 56.0477 210.228C50.8314 213.053 45.912 206.056 50.3352 202.103C44.6039 203.767 41.302 195.802 46.5289 192.922C45.2442 193.153 43.92 192.873 42.8393 192.141C41.7585 191.409 41.0068 190.283 40.7449 189.005C40.4829 187.726 40.7314 186.395 41.4373 185.297C42.1432 184.199 43.2505 183.421 44.5227 183.128C38.7139 182.474 38.5552 174.089 44.3352 173.216C43.917 173.113 43.5452 172.92 43.1914 172.741L32.4164 171.578L32.7914 276.022L226.029 297.578L225.654 193.935L158.779 185.778V239.841ZM246.316 137.341L249.266 138.535L249.835 138.897L274.035 141.591L259.498 101.11L251.485 124.235C251.385 124.522 249.354 130.36 246.316 137.353V137.341ZM115.979 112.503L119.104 115.935L127.073 108.966L140.479 107.541L150.86 117.135L157.429 122.591L169.016 116.785L171.166 117.097C171.241 116.678 171.323 116.26 171.404 115.847C173.329 105.785 175.998 96.9972 176.11 96.6284L184.479 69.1847L195.029 95.8784L200.291 109.266L206.954 101.522L220.791 85.4409L224.404 106.347L226.46 118.285L237.148 112.26L259.079 99.8909L247.529 67.7659L92.6164 50.5097C94.1852 72.3472 91.4602 98.8347 84.8727 120.51H86.3227L90.6977 112.472H115.985L115.979 112.503ZM46.4227 173.372C51.1727 174.685 51.3602 181.351 46.6914 182.928C51.527 183.47 52.8177 189.899 48.5664 192.266C53.3495 191.923 55.8252 197.858 52.2164 201.016C56.787 199.694 60.4464 204.901 57.6539 208.753C61.5839 206.555 66.1895 210.264 64.8789 214.572C67.7102 211.62 72.6952 213.132 73.4102 217.16C74.6958 213.589 79.3352 212.697 81.8539 215.535C81.0508 211.532 85.1227 208.306 88.8352 210.003C85.9827 206.397 89.1008 201.177 93.6289 201.978C89.617 199.14 91.6777 192.823 96.5914 192.897C92.0189 190.708 93.232 183.888 98.2789 183.41C97.251 183.055 96.3667 182.375 95.7599 181.473C95.1531 180.571 94.857 179.495 94.9164 178.41L47.1477 173.247C46.8914 173.366 46.6814 173.341 46.4227 173.372ZM276.135 260.297L275.766 157.885L270.348 162.26L235.654 191.503L236.016 292.753L276.135 260.297ZM259.741 157.047L244.673 147.503L242.06 146.447C238.366 153.647 233.691 160.822 227.898 163.872C224.498 165.672 220.26 166.585 215.298 166.585C208.341 166.585 199.829 164.766 191.954 161.585C185.704 159.085 177.391 154.71 173.041 148.247C169.979 143.691 168.891 137.141 169.723 127.672L156.11 134.503L144.235 124.628L137.098 118.047L131.373 118.672L118.591 129.816L111.716 122.503H96.5852L85.5789 142.503L82.0164 138.003L79.2539 141.035L72.5289 151.253L64.8477 154.322L61.0077 160H53.3827L51.6477 163.753L99.7102 168.885C99.9897 168.197 100.416 167.578 100.96 167.072C101.827 166.271 102.95 165.803 104.129 165.75C105.309 165.698 106.469 166.064 107.404 166.785C107.371 166.737 107.342 166.687 107.316 166.635C104.22 161.405 111.353 156.247 115.36 160.775C119.368 165.303 113.381 171.757 108.566 168.047C108.915 168.598 109.153 169.211 109.266 169.853L123.404 171.378L228.741 184.235L260.923 157.122L259.741 157.047ZM242.029 120.966L218.979 133.96L214.516 108.041L197.016 128.36L185.685 99.5409C185.685 99.5409 175.279 133.653 181.31 142.666C186.116 149.822 203.448 156.572 215.266 156.572C218.391 156.572 221.16 156.097 223.185 155.022C231.81 150.453 242.029 120.966 242.029 120.966ZM43.8539 290.216V290.091C43.8539 287.735 38.7227 285.822 32.3977 285.822C26.0727 285.822 20.9414 287.735 20.9414 290.091C20.9414 292.097 24.6914 293.778 29.6914 294.235V294.36C29.6914 296.716 34.8227 298.628 41.1477 298.628C47.4727 298.628 52.6039 296.716 52.6039 294.36C52.5977 292.353 48.8664 290.672 43.8539 290.216ZM262.604 294.36C256.273 294.36 251.148 296.272 251.148 298.628C251.148 300.985 256.279 302.897 262.604 302.897C268.929 302.897 274.06 300.985 274.06 298.628C274.06 296.272 268.904 294.378 262.573 294.378L262.604 294.36ZM287.604 284.185C281.273 284.185 276.148 286.097 276.148 288.453C276.148 290.81 281.279 292.722 287.604 292.722C293.929 292.722 299.06 290.81 299.06 288.453C299.06 286.097 293.923 284.185 287.598 284.185H287.604Z" fill="#F2CA50"/>
</svg>
