<svg width="40" height="40" viewBox="0 0 40 40" fill="none" xmlns="http://www.w3.org/2000/svg">
<path d="M21.5914 1.32482C21.2539 1.62482 18.6289 6.8342 18.6289 6.8342L16.6758 14.7123L24.2758 14.0154C24.2758 14.0154 30.5977 2.2592 30.7258 1.98732C30.9539 1.49357 31.0758 1.29045 30.2039 1.29045C29.332 1.28732 21.907 1.04357 21.5914 1.32482Z" fill="#176CC7"/>
<path d="M25.5247 13.5284C25.1465 13.3252 14.009 13.1502 13.7465 13.5284C13.509 13.8721 13.6434 15.6752 13.734 15.8909C13.8965 16.2659 17.4934 17.9002 17.4934 17.9002L17.4247 18.644C17.4247 18.644 17.7184 18.719 19.809 18.719C21.8997 18.719 22.3122 18.6127 22.3122 18.6127L22.3184 17.9409C22.3184 17.9409 25.5559 16.3659 25.7184 16.1471C25.8559 15.9659 25.9028 13.7315 25.5247 13.5284ZM22.209 16.3784C22.209 16.3784 22.3122 15.919 22.0965 15.8127C21.8809 15.7034 18.1809 15.7534 17.8872 15.769C17.5934 15.7846 17.5934 16.3096 17.5934 16.3096L15.2184 14.894V14.6627L24.0622 14.7252L24.0778 14.9877L22.209 16.3784Z" fill="#CECDD2"/>
<path d="M18.5191 15.9902C18.2254 15.9902 18.0566 16.2965 18.0566 16.8246C18.0566 17.3184 18.2254 17.734 18.5973 17.7027C18.9035 17.6777 19.0098 17.209 18.9816 16.7934C18.9535 16.2996 18.891 15.9902 18.5191 15.9902Z" fill="#FDFFFF"/>
<path d="M9.05273 28.7157C9.05273 36.2032 15.9434 39.3813 20.4465 39.247C25.6934 39.0907 31.2309 35.1095 30.8715 27.9657C30.5309 21.197 24.7902 18.1876 19.859 18.222C14.1277 18.2657 9.05273 22.1751 9.05273 28.7157Z" fill="#CECDD2"/>
<path d="M20.1657 37.8527C20.0876 37.8527 20.0064 37.8527 19.9282 37.8496C17.5845 37.7715 15.2689 36.784 13.5751 35.1434C11.7626 33.3871 10.7689 31.0121 10.7814 28.459C10.8095 22.2246 16.2595 19.334 19.9564 19.334H19.9876C24.997 19.3559 29.1095 23.2496 29.2251 28.5277C29.2751 30.8777 28.3126 33.3434 26.4251 35.1996C24.6626 36.9277 22.3251 37.8527 20.1657 37.8527ZM19.9501 20.3715C16.6345 20.3715 11.7314 23.084 11.7189 28.459C11.7095 32.4777 14.822 36.609 20.0064 36.784C21.9814 36.8465 24.0157 36.0902 25.6595 34.4746C27.3657 32.7965 28.3251 30.634 28.2907 28.5402C28.2095 23.9996 24.497 20.3871 19.9907 20.3652C19.9845 20.3652 19.9595 20.3715 19.9501 20.3715Z" fill="#9B9B9D"/>
<path d="M18.1528 19.2095C17.9372 18.9127 15.7278 18.997 13.3497 21.0439C10.9872 23.0783 10.6341 25.3283 11.0591 25.447C11.5435 25.5814 12.1341 23.4064 14.1747 21.5783C16.0497 19.9064 18.581 19.8002 18.1528 19.2095ZM27.4622 27.4127C26.7091 27.5189 27.4903 29.7752 25.7435 32.3002C24.2278 34.4908 22.5091 35.2845 22.7091 35.7658C22.9778 36.4095 25.731 34.8064 27.006 32.1939C28.1591 29.8314 28.0216 27.3345 27.4622 27.4127Z" fill="#FEFFFA"/>
<path d="M7.97255 1.16214C7.77567 1.34339 15.3038 14.7496 15.3038 14.7496C15.3038 14.7496 16.5663 14.9121 19.385 14.9371C22.2038 14.9621 23.6007 14.7746 23.6007 14.7746C23.6007 14.7746 17.7475 1.29652 17.3975 1.16214C17.2257 1.09339 14.9069 1.06839 12.6413 1.04339C10.3725 1.01527 8.16005 0.987142 7.97255 1.16214Z" fill="#2E9DF4"/>
<path d="M17.7666 26.9846C18.0916 26.9877 18.3822 26.5471 18.6509 26.2784C19.2228 25.7034 19.8228 25.2471 20.5072 25.8659C22.1884 27.394 18.8134 28.944 17.5322 31.0627C16.5759 32.644 16.3822 33.8596 16.6478 34.1846C16.9134 34.5096 23.3791 34.494 23.4666 34.3315C23.5541 34.169 23.6447 32.0034 23.4947 31.9002C23.3447 31.7971 20.1666 31.8565 20.1666 31.8565C20.1666 31.8565 20.4322 31.2377 21.5228 30.294C22.7197 29.2596 23.6791 27.8377 23.4228 26.1565C22.8916 22.6815 19.3916 22.5534 17.8759 23.7627C16.3978 24.9409 16.7166 26.9721 17.7666 26.9846Z" fill="#9B9B9D"/>
</svg>
