<svg width="40" height="40" viewBox="0 0 40 40" fill="none" xmlns="http://www.w3.org/2000/svg">
<path d="M21.5914 1.32482C21.2539 1.62482 18.6289 6.8342 18.6289 6.8342L16.6758 14.7123L24.2758 14.0154C24.2758 14.0154 30.5977 2.2592 30.7258 1.98732C30.9539 1.49357 31.0758 1.29045 30.2039 1.29045C29.332 1.28732 21.907 1.04357 21.5914 1.32482Z" fill="#176CC7"/>
<path d="M25.5247 13.5284C25.1465 13.3252 14.009 13.1502 13.7465 13.5284C13.509 13.8721 13.6434 15.6752 13.734 15.8909C13.8965 16.2659 17.4934 17.9002 17.4934 17.9002L17.4247 18.644C17.4247 18.644 17.7184 18.719 19.809 18.719C21.8997 18.719 22.3122 18.6127 22.3122 18.6127L22.3184 17.9409C22.3184 17.9409 25.5559 16.3659 25.7184 16.1471C25.8559 15.9659 25.9028 13.7315 25.5247 13.5284ZM22.209 16.3784C22.209 16.3784 22.3122 15.919 22.0965 15.8127C21.8809 15.7034 18.1809 15.7534 17.8872 15.769C17.5934 15.7846 17.5934 16.3096 17.5934 16.3096L15.2622 15.1096L15.2184 14.6627L24.0622 14.7252L24.0309 15.1471L22.209 16.3784Z" fill="#F79429"/>
<path d="M18.5191 16.2158C18.2254 16.2158 18.0566 16.5221 18.0566 17.0502C18.0566 17.5439 18.2254 17.9596 18.5973 17.9283C18.9035 17.9033 19.0098 17.4346 18.9816 17.0189C18.9535 16.5221 18.891 16.2158 18.5191 16.2158Z" fill="#FDFFFF"/>
<path d="M9.16016 28.7782C9.16016 36.2657 15.9445 39.3813 20.4477 39.247C25.6945 39.0907 31.3383 35.1095 30.8727 27.9657C30.4352 21.2626 24.7914 18.1876 19.8602 18.222C14.1289 18.2657 9.16016 22.2376 9.16016 28.7782Z" fill="#F79429"/>
<path d="M20.2087 38.1154C20.1306 38.1154 20.0493 38.1154 19.9712 38.1123C17.6275 38.0342 15.3118 37.0467 13.6181 35.4061C11.8056 33.6498 10.8118 31.2748 10.8243 28.7217C10.8525 22.4873 16.3025 19.5967 19.9993 19.5967H20.0306C25.04 19.6186 29.1525 23.5123 29.2681 28.7904C29.3181 31.1404 28.5681 33.4779 26.6806 35.3342C24.9181 37.0592 22.3681 38.1154 20.2087 38.1154ZM19.9931 20.6342C16.6775 20.6342 11.7743 23.3467 11.7618 28.7217C11.7525 32.7404 14.865 36.8717 20.0493 37.0467C22.0243 37.1092 24.2525 36.3779 25.8931 34.7654C27.5993 33.0873 28.365 30.8998 28.3306 28.8061C28.2556 24.2654 24.5431 20.6529 20.0368 20.6342C20.0275 20.6279 20.0025 20.6342 19.9931 20.6342Z" fill="#D25116"/>
<path d="M18.1528 19.2095C17.9372 18.9127 15.7278 18.997 13.3497 21.0439C10.9872 23.0783 10.6341 25.3283 11.0591 25.447C11.5435 25.5814 12.1341 23.4064 14.1747 21.5783C16.0497 19.9064 18.581 19.8002 18.1528 19.2095ZM27.6497 27.3877C26.8966 27.4939 27.6778 29.7501 25.931 32.2752C24.4153 34.4658 22.6966 35.2595 22.8966 35.7408C23.1653 36.3845 25.9185 34.7814 27.1935 32.1689C28.3466 29.8033 28.2091 27.3064 27.6497 27.3877Z" fill="#FEFFFA"/>
<path d="M7.97255 1.16214C7.77567 1.34339 15.3038 14.7496 15.3038 14.7496C15.3038 14.7496 16.5663 14.9121 19.385 14.9371C22.2038 14.9621 23.6007 14.7746 23.6007 14.7746C23.6007 14.7746 17.7475 1.29652 17.3975 1.16214C17.2257 1.09339 14.9069 1.06839 12.6413 1.04339C10.3725 1.01527 8.16005 0.987142 7.97255 1.16214Z" fill="#2E9DF4"/>
<path d="M23.4213 26.1592C23.0588 23.0185 19.4025 22.756 17.8869 23.9623C16.4119 25.1373 16.5525 26.7748 17.5869 26.9654C18.4025 27.1154 18.615 26.4685 18.8525 26.1717C19.39 25.506 20.2463 25.4435 20.8056 25.9779C21.44 26.5873 21.0494 28.0435 20.0963 28.1029C19.3869 28.1467 19.0275 28.1092 18.9369 28.231C18.8088 28.4029 18.8275 29.756 18.9588 29.906C19.1088 30.0779 19.7088 29.9717 20.2244 29.9904C20.9338 30.0185 21.6869 31.0685 21.19 31.856C20.6744 32.6717 19.3025 32.306 18.8088 31.8123C18.1556 31.1592 17.5025 31.5342 17.2838 31.7904C16.94 32.1967 16.5744 33.1217 17.8431 34.0217C19.1088 34.9217 22.9494 35.0935 23.7244 32.306C24.3994 29.8717 22.8244 28.8717 22.8244 28.8717C22.8244 28.8717 23.6275 27.9498 23.4213 26.1592Z" fill="#D25116"/>
</svg>
