<svg width="40" height="40" viewBox="0 0 40 40" fill="none" xmlns="http://www.w3.org/2000/svg">
<path d="M21.5914 1.32482C21.2539 1.62482 18.6289 6.8342 18.6289 6.8342L16.6758 14.7123L24.2758 14.0154C24.2758 14.0154 30.5977 2.2592 30.7258 1.98732C30.9539 1.49357 31.0758 1.29045 30.2039 1.29045C29.332 1.28732 21.907 1.04357 21.5914 1.32482Z" fill="#176CC7"/>
<path d="M25.5254 13.5284C25.1472 13.3252 14.0097 13.1502 13.7472 13.5284C13.5097 13.8721 13.5441 15.444 13.6597 15.6471C13.7754 15.8502 17.5191 17.5909 17.5191 17.5909L17.516 18.2252C17.516 18.2252 17.7222 18.7221 19.8097 18.7221C21.8972 18.7221 22.1129 18.3002 22.1129 18.3002L22.1316 17.6596C22.1316 17.6596 25.4097 16.0221 25.5816 15.8784C25.7566 15.7315 25.9035 13.7315 25.5254 13.5284ZM22.0941 16.1315C22.0941 16.1315 22.0847 15.694 21.8691 15.5846C21.6535 15.4752 18.1816 15.494 17.8879 15.5096C17.5941 15.5252 17.5941 16.0502 17.5941 16.0502L15.2191 14.894V14.6627L24.0629 14.7252L24.0785 14.9877L22.0941 16.1315Z" fill="#FCC417"/>
<path d="M18.5191 15.9902C18.2254 15.9902 18.0566 16.2965 18.0566 16.8246C18.0566 17.3184 18.2254 17.734 18.5973 17.7027C18.9035 17.6777 19.0098 17.209 18.9816 16.7934C18.9535 16.2996 18.891 15.9902 18.5191 15.9902Z" fill="#FDFFFF"/>
<path d="M9.05664 28.3501C9.05664 35.8376 15.8254 39.172 20.3254 39.0126C25.2879 38.8345 31.2316 34.9657 30.8723 27.822C30.5316 21.0532 24.8379 17.8438 19.9066 17.8782C14.1754 17.9188 9.05664 21.8095 9.05664 28.3501Z" fill="#FCC417"/>
<path d="M20.1657 37.7092C20.0876 37.7092 20.0064 37.7092 19.9282 37.7061C17.5845 37.6279 15.2689 36.6404 13.5751 34.9998C11.7626 33.2436 10.7689 30.8686 10.7814 28.3154C10.8095 22.0811 16.2595 19.1904 19.9564 19.1904H19.9876C24.997 19.2123 29.1095 23.1061 29.2251 28.3842C29.2751 30.7342 28.3126 33.1998 26.4251 35.0561C24.6626 36.7842 22.3251 37.7092 20.1657 37.7092ZM19.9501 20.2279C16.6345 20.2279 11.7314 22.9404 11.7189 28.3154C11.7095 32.3342 14.822 36.4654 20.0064 36.6404C21.9814 36.7029 24.0157 35.9467 25.6595 34.3311C27.3657 32.6529 28.3251 30.4904 28.2907 28.3967C28.2157 23.8561 24.5032 20.2436 19.997 20.2248C19.9845 20.2248 19.9595 20.2279 19.9501 20.2279Z" fill="#FA912C"/>
<path d="M18.0693 18.9411C17.8537 18.6442 15.41 18.7005 13.1006 20.9567C10.8725 23.1348 10.6318 25.188 11.06 25.3067C11.5443 25.4411 12.135 23.2661 14.1756 21.438C16.0506 19.763 18.5006 19.5317 18.0693 18.9411ZM27.5225 27.0255C26.7693 27.1317 27.5506 29.388 25.8037 31.913C24.2881 34.1036 22.5693 34.8973 22.7693 35.3786C23.0381 36.0223 25.7912 34.4192 27.0662 31.8067C28.2225 29.4411 28.085 26.9442 27.5225 27.0255Z" fill="#FEFFFA"/>
<path d="M17.4536 24.069C17.2911 24.3096 17.438 26.419 17.5349 26.5128C17.7224 26.7003 19.1474 26.0284 19.1474 26.0284L19.0942 31.669C19.0942 31.669 18.0474 31.6565 17.938 31.6971C17.7224 31.7784 17.7505 33.9534 17.9099 34.0596C18.0692 34.1659 22.3411 34.2221 22.5036 34.0065C22.6661 33.7909 22.6255 31.8878 22.5505 31.8003C22.4161 31.6378 21.3942 31.7034 21.3942 31.7034C21.3942 31.7034 21.4817 23.3971 21.4536 23.1315C21.4255 22.8659 21.1317 22.7003 20.7817 22.7815C20.4317 22.8628 17.5567 23.9128 17.4536 24.069Z" fill="#FA912C"/>
<path d="M7.97255 1.16214C7.77567 1.34339 15.3038 14.7496 15.3038 14.7496C15.3038 14.7496 16.5663 14.9121 19.385 14.9371C22.2038 14.9621 23.6007 14.7746 23.6007 14.7746C23.6007 14.7746 17.7475 1.29652 17.3975 1.16214C17.2257 1.09339 14.9069 1.06839 12.6413 1.04339C10.3725 1.01527 8.16005 0.987142 7.97255 1.16214Z" fill="#2E9DF4"/>
</svg>
