<?xml version="1.0" encoding="utf-8"?>
<!-- Generator: Adobe Illustrator 16.0.0, SVG Export Plug-In . SVG Version: 6.00 Build 0)  -->
<!DOCTYPE svg PUBLIC "-//W3C//DTD SVG 1.1//EN" "http://www.w3.org/Graphics/SVG/1.1/DTD/svg11.dtd">
<svg version="1.1" id="Layer_1" xmlns="http://www.w3.org/2000/svg" xmlns:xlink="http://www.w3.org/1999/xlink" x="0px" y="0px"
	 width="20px" height="20px" viewBox="0 0 66 66" enable-background="new 0 0 66 66" xml:space="preserve">
<g>
	<path fill="#5B402E" d="M2,31v20.854C2,59.572,8.507,59,16.228,59h33.545C57.493,59,64,59.572,64,51.854V31H2z"/>
	<path fill="#493322" d="M16,59h33.772C57.493,59,64,59.572,64,51.854V31"/>
	<path fill="#5B402E" d="M64,26v-4.963C64,13.316,57.493,7,49.772,7H16.228C8.507,7,2,13.316,2,21.037V26H64z"/>
	<path fill="#493322" d="M2,21v5h62v-4.963C64,13.316,57.493,7.04,49.772,7.04"/>
	<rect x="2" y="31" fill="#F2B111" width="62" height="8"/>
	<polyline fill="#E88813" points="2,39 64,39 64,31 	"/>
	<rect x="2" y="21" fill="#F2B111" width="62" height="5"/>
	<polyline fill="#E88813" points="2,26 64,26 64,21 	"/>
	<g>
		<rect x="15" y="6" fill="#E88813" width="7" height="19"/>
		<rect x="44" y="6" fill="#E88813" width="7" height="19"/>
	</g>
	<g>
		<rect x="15" y="38" fill="#E88813" width="7" height="22"/>
		<rect x="44" y="38" fill="#E88813" width="7" height="22"/>
	</g>
	<g>
		<g>
			<g>
				<circle fill="#493322" cx="25.029" cy="35.121" r="1.134"/>
				<circle fill="#493322" cx="30.322" cy="35.121" r="1.134"/>
			</g>
			<g>
				<circle fill="#493322" cx="35.678" cy="35.121" r="1.135"/>
				<circle fill="#493322" cx="40.971" cy="35.121" r="1.135"/>
			</g>
		</g>
		<g>
			<g>
				<circle fill="#493322" cx="6.157" cy="35.121" r="1.134"/>
				<circle fill="#493322" cx="11.45" cy="35.121" r="1.134"/>
			</g>
			<g>
				<circle fill="#493322" cx="54.55" cy="35.121" r="1.134"/>
				<circle fill="#493322" cx="59.843" cy="35.121" r="1.134"/>
			</g>
		</g>
	</g>
	<g>
		<path fill="#F2B111" d="M36.487,45.309c0-1.926-1.562-3.486-3.487-3.486s-3.487,1.561-3.487,3.486
			c0,1.258,0.667,2.542,1.665,3.155L30.186,55h5.629l-0.993-6.536C35.82,47.851,36.487,46.566,36.487,45.309z"/>
		<path fill="#E88813" d="M35.814,55l-0.993-6.536c0.999-0.613,1.666-1.897,1.666-3.155c0-1.926-1.562-3.486-3.487-3.486
			s-3.487,1.561-3.487,3.486"/>
	</g>
</g>
</svg>
